# xmcd
# 
# Track frame offsets:
#     183
#     12228
#     24708
#     38973
#     50388
#     62783
#     72230
#     84145
#     93298
#     108215
#     118485
#     131083
#     142855
#     157260
#     171783
# 
# Disc length: 2473
# 
# Revision: 0
# Processed by: cddbd v1.5.2PL0 Copyright (c) Steve Scherf et al.
# Submitted via: fre:ac v1.0.27
# 
DISCID=ca09a70f
DTITLE=Ernest Tubb - Ernest Tubb and Guest
DYEAR=1989
DGENRE=Country
TTITLE0=Watltz Across Texas
TTITLE1=Jimmy Rodgers' Last Blue Yodel
TTITLE2=Let's Say Goodbye Like We said Hello
TTITLE3=Answer The Phone
TTITLE4=Journey's End
TTITLE5=Walkin' The Floor Over You
TTITLE6=Half A Mind
TTITLE7=Jealous Lovin' Heart
TTITLE8=Rainbow At Midnight
TTITLE9=Set Up Two Glasses, Joe
TTITLE10=You Nearly Lost Your Mind
TTITLE11=You're The Only Good Thing
TTITLE12=Filipino Baby
TTITLE13=When The World Has Turned You Down
TTITLE14=Seaman's Blues
EXTD=
EXTT0=
EXTT1=
EXTT2=
EXTT3=
EXTT4=
EXTT5=
EXTT6=
EXTT7=
EXTT8=
EXTT9=
EXTT10=
EXTT11=
EXTT12=
EXTT13=
EXTT14=
PLAYORDER=
